<svg xmlns="http://www.w3.org/2000/svg" xmlns:xlink="http://www.w3.org/1999/xlink" xmlns:svgjs="http://svgjs.com/svgjs" width="512" height="512" x="0" y="0" viewBox="0 0 512 512" style="enable-background:new 0 0 512 512" xml:space="preserve" class=""><g>
<g xmlns="http://www.w3.org/2000/svg">
	<g>
		<path id="agave-line" d="M507.294,361.266c-31.802-12.767-64.894-20.585-98.701-23.393c30.158-15.531,57.74-35.418,82.236-59.383    c2.189-2.143,2.856-5.401,1.684-8.231c-1.172-2.83-3.953-4.66-7.011-4.629c-34.268,0.375-67.833,5.816-100.14,16.16    c21.919-25.89,39.791-54.818,53.251-86.333c1.203-2.817,0.572-6.083-1.594-8.249c-2.167-2.167-5.433-2.797-8.249-1.594    c-31.515,13.46-60.443,31.332-86.333,53.252c10.344-32.308,15.784-65.873,16.159-100.141c0.034-3.063-1.799-5.839-4.629-7.011    c-2.831-1.173-6.089-0.505-8.231,1.684c-23.965,24.496-43.852,52.078-59.383,82.236c-2.807-33.807-10.625-66.899-23.393-98.702    c-1.141-2.843-3.896-4.706-6.96-4.706c-3.064,0-5.819,1.863-6.96,4.706c-12.767,31.802-20.585,64.895-23.393,98.702    c-15.531-30.16-35.418-57.741-59.383-82.236c-2.142-2.19-5.401-2.856-8.231-1.684s-4.663,3.948-4.629,7.011    c0.375,34.268,5.816,67.833,16.16,100.141c-25.89-21.92-54.818-39.792-86.333-53.252c-2.818-1.203-6.083-0.571-8.249,1.594    c-2.166,2.166-2.797,5.432-1.594,8.249c13.46,31.515,31.332,60.443,53.251,86.333c-32.307-10.343-65.873-15.784-100.14-16.16    c-3.034-0.042-5.839,1.799-7.011,4.629c-1.172,2.83-0.505,6.089,1.684,8.231c24.496,23.965,52.078,43.852,82.237,59.383    c-33.807,2.808-66.899,10.626-98.701,23.393C1.863,362.407,0,365.163,0,368.226c0,3.063,1.863,5.819,4.706,6.96    c40.643,16.315,83.386,24.588,127.044,24.588c42.661,0,84.443-7.921,124.25-23.505c39.807,15.583,81.589,23.505,124.25,23.505    c43.658,0,86.401-8.273,127.044-24.588c2.843-1.141,4.706-3.897,4.706-6.96C512,365.163,510.137,362.407,507.294,361.266z     M465.454,281.466c-26.371,22.819-56.003,41.11-88.327,54.499l-1.829,0.771c-19.137,0.275-38.089,2.142-56.756,5.583    c15.629-10.763,30.346-22.84,44.07-36.174c0.08-0.03,0.161-0.054,0.24-0.087l1.607-0.67    C396.784,291.998,430.671,283.979,465.454,281.466z M169.241,158.771c22.818,26.371,41.109,56.003,54.5,88.331    c0.259,0.625,0.515,1.251,0.77,1.878c0.277,19.12,2.144,38.053,5.583,56.703c-10.749-15.609-22.809-30.308-36.122-44.017    l-0.809-1.899C179.773,227.441,171.754,193.554,169.241,158.771z M131.75,384.774c-34.989,0-69.366-5.56-102.462-16.549    c33.096-10.989,67.473-16.548,102.462-16.548c3.909,0,7.869,0.071,11.771,0.211c4.103,0.157,7.615-3.086,7.764-7.226    c0.149-4.14-3.086-7.616-7.226-7.765c-2.517-0.09-5.054-0.144-7.591-0.179c-32.1-13.378-63.73-32.589-89.922-55.253    c34.783,2.513,68.67,10.532,100.997,23.922c0.419,0.173,1.182,0.494,1.875,0.786c13.711,13.318,28.414,25.382,44.026,36.135    c-5.324-0.982-10.668-1.84-16.028-2.565c-4.105-0.555-7.883,2.322-8.438,6.427c-0.556,4.104,2.322,7.883,6.427,8.438    c19.92,2.694,39.622,7.261,58.798,13.619C201.109,379.216,166.737,384.774,131.75,384.774z M156.441,292.069    c-24.741-24.741-45.118-52.98-60.75-84.153c31.172,15.632,59.412,36.009,84.153,60.75c24.741,24.742,45.118,52.98,60.75,84.153    C209.421,337.187,181.182,316.81,156.441,292.069z M255.995,346.429c-10.988-33.094-16.545-67.466-16.545-102.454    c0.002-34.989,5.561-69.366,16.55-102.461c10.989,33.096,16.548,67.473,16.548,102.462c0,4.06-0.077,8.17-0.228,12.218    c-0.155,4.139,3.076,7.62,7.215,7.774c4.162,0.151,7.62-3.076,7.774-7.215c0.096-2.571,0.153-5.164,0.191-7.756l0.758-1.896    c13.39-32.327,31.681-61.959,54.499-88.33c-2.513,34.783-10.532,68.67-23.922,100.997l-1.055,2.151    c-13.212,13.632-25.186,28.244-35.867,43.751c0.987-5.346,1.848-10.712,2.575-16.094c0.554-4.105-2.324-7.882-6.429-8.437    c-4.11-0.554-7.882,2.324-8.437,6.429C266.929,307.51,262.359,327.233,255.995,346.429z M332.157,268.666    c24.741-24.741,52.98-45.118,84.153-60.75c-15.632,31.173-36.009,59.412-60.75,84.153c-24.741,24.741-52.98,45.118-84.153,60.75    C287.039,321.646,307.416,293.408,332.157,268.666z M380.25,384.774c-34.989,0-69.366-5.56-102.462-16.549    c33.096-10.989,67.473-16.548,102.462-16.548s69.366,5.559,102.462,16.548C449.616,379.215,415.239,384.774,380.25,384.774z" fill="#3a7c8d" data-original="#000000" style="" class=""></path>
	</g>
</g>
<g xmlns="http://www.w3.org/2000/svg">
</g>
<g xmlns="http://www.w3.org/2000/svg">
</g>
<g xmlns="http://www.w3.org/2000/svg">
</g>
<g xmlns="http://www.w3.org/2000/svg">
</g>
<g xmlns="http://www.w3.org/2000/svg">
</g>
<g xmlns="http://www.w3.org/2000/svg">
</g>
<g xmlns="http://www.w3.org/2000/svg">
</g>
<g xmlns="http://www.w3.org/2000/svg">
</g>
<g xmlns="http://www.w3.org/2000/svg">
</g>
<g xmlns="http://www.w3.org/2000/svg">
</g>
<g xmlns="http://www.w3.org/2000/svg">
</g>
<g xmlns="http://www.w3.org/2000/svg">
</g>
<g xmlns="http://www.w3.org/2000/svg">
</g>
<g xmlns="http://www.w3.org/2000/svg">
</g>
<g xmlns="http://www.w3.org/2000/svg">
</g>
</g></svg>
