<?xml version="1.0" encoding="utf-8"?>
<!-- Generator: Adobe Illustrator 25.2.1, SVG Export Plug-In . SVG Version: 6.00 Build 0)  -->
<svg version="1.1" id="Layer_1" xmlns="http://www.w3.org/2000/svg" xmlns:xlink="http://www.w3.org/1999/xlink" x="0px" y="0px"
	 viewBox="0 0 472.67 96.67" style="enable-background:new 0 0 472.67 96.67;" xml:space="preserve">
<style type="text/css">
	.st0{clip-path:url(#SVGID_2_);}
	.st1{fill:url(#SVGID_3_);}
	.st2{fill:url(#SVGID_4_);}
	.st3{fill:url(#SVGID_5_);}
	.st4{fill:#3A7C8D;}
	.st5{fill:#601403;}
	.st6{fill:none;}
	.st7{fill:#7A352B;}
</style>
<g>
	<g>
		<defs>
			<path id="SVGID_1_" d="M176.77,81.2l-28.72-71.08h-10.37H97.5h-0.47H78.94v1.09c9.28,0,16.16,12.01,16.16,22.49v43.9L47.6,10.12
				H31.99v0.55h0.22c3.82,0,6.44,4.37,6.77,10.81v65.08h18.56v-1.09c-9.39,0-16.16-12.01-16.16-22.49V18.63l47.5,67.92h7.86h0.77
				h8.4h1.74h19.33v-1.09c-10.26,0-10.92-13.98-6.99-22.06l21.07-43.35l15.18,39.31H124.8v2.4h32.32L164,79.67
				c0.98,3.49-0.87,5.79-4.8,5.79h-0.44v1.09h24.57v-1.09C180.49,85.46,177.87,83.71,176.77,81.2z"/>
		</defs>
		<use xlink:href="#SVGID_1_"  style="overflow:visible;fill:#601403;"/>
		<clipPath id="SVGID_2_">
			<use xlink:href="#SVGID_1_"  style="overflow:visible;"/>
		</clipPath>
		<g class="st0">
			<linearGradient id="SVGID_3_" gradientUnits="userSpaceOnUse" x1="130.4907" y1="26.7401" x2="134.3909" y2="26.7401">
				<stop  offset="0" style="stop-color:#3A7C8D"/>
				<stop  offset="0.7207" style="stop-color:#3A7C8D"/>
			</linearGradient>
			<path class="st1" d="M130.57,25.71c0.28,0.98,0.56,2.01,0.83,3.09c0.21,0.8,0.85,1.34,1.55,1.31c0.12-0.01,0.24-0.03,0.35-0.07
				c0.81-0.27,1.26-1.26,1.02-2.22c-0.13-0.5-0.36-1.38-0.36-1.38c-0.01-0.05-0.01-0.12,0.01-0.17c0,0,0.1-0.23,0.17-0.38
				c0.11-0.25,0-0.65,0-0.65c-0.01-0.05-0.03-0.09-0.04-0.1c-0.01-0.01-0.06,0.03-0.1,0.07l-0.24,0.23
				c-0.04,0.03-0.08,0.02-0.09-0.02c0,0-0.14-0.51-0.22-0.79c-0.27-0.95-1.13-1.47-1.93-1.17C130.73,23.75,130.3,24.77,130.57,25.71
				z"/>
			<linearGradient id="SVGID_4_" gradientUnits="userSpaceOnUse" x1="154.4516" y1="82.6705" x2="165.4345" y2="82.6705">
				<stop  offset="0" style="stop-color:#BAC6BE"/>
				<stop  offset="0.6257" style="stop-color:#3A7C8D"/>
			</linearGradient>
			<path class="st2" d="M164.06,79.91c-0.03-0.04-0.06-0.07-0.06-0.07c0,0-0.04,0.01-0.09,0.02c0,0-5.34,1.36-8.26,2.07
				c-1.83,0.44-1.45,3.65,0.42,3.56c0.08,0,0.16-0.02,0.24-0.04c2.94-0.71,5.76-1.42,8.39-2.1
				C166.67,82.84,164.06,79.91,164.06,79.91z"/>
			<linearGradient id="SVGID_5_" gradientUnits="userSpaceOnUse" x1="78.7388" y1="53.2974" x2="182.4354" y2="53.2974">
				<stop  offset="0" style="stop-color:#BAC6BE"/>
				<stop  offset="0.6257" style="stop-color:#3A7C8D"/>
			</linearGradient>
			<path class="st3" d="M182.41,70.26c-0.22-0.96-1.06-1.55-1.87-1.31c-0.21,0.06-26.41,7.01-26.41,7.01
				c-0.05,0.01-0.06,0-0.02-0.04l6.65-6.3c0.04-0.03,0.1-0.07,0.15-0.07c0,0,0.32-0.04,0.53-0.07c0.28-0.04,0.55-0.35,0.55-0.35
				c0.03-0.04,0.06-0.08,0.07-0.09S162,69.01,161.95,69l-0.45-0.11c-0.05-0.01-0.08-0.06-0.07-0.11c0,0,0.29-1.41-0.16-2.03
				c-0.56-0.77-1.53-0.86-2.16-0.21c-4.1,4.1-12.19,11.09-12.19,11.09c-0.04,0.03-0.11,0.07-0.16,0.08l-1.79,0.4
				c-0.05,0.01-0.06-0.01-0.04-0.05c0,0,8.34-11.96,12.02-18.44c0.98-1.71,2.68-5.01,2.68-5.01c0.02-0.04,0.07-0.1,0.11-0.13
				l15.37-10.03c0.04-0.03,0.06-0.01,0.03,0.03c0,0-6.76,11.46-10.95,16.46c-1.41,1.69,0.78,4.24,2.19,2.54
				c0.2-0.23,0.53-0.65,0.53-0.65c0.03-0.04,0.1-0.08,0.14-0.09c0,0,0.29-0.05,0.48-0.09c0.27-0.05,0.54-0.37,0.54-0.37
				c0.03-0.04,0.06-0.08,0.06-0.09s-0.06-0.03-0.11-0.04l-0.39-0.08c-0.05-0.01-0.06-0.05-0.04-0.09l12.43-20.45
				c0.02-0.04,0.03-0.12,0.02-0.17c0,0-0.64-2.93-1.92-2.38c-5.36,2.54-15.41,9-15.41,9c-0.04,0.03-0.06,0.01-0.05-0.04
				c0,0,5.46-15.08,6.84-23.18c0.22-1.58-1.3-2.72-2.4-1.79c-3.58,3.15-10.16,10.12-10.16,10.12c-0.03,0.04-0.08,0.03-0.09-0.02
				l-0.16-0.4c-0.02-0.05-0.04-0.09-0.05-0.1s-0.06,0.04-0.09,0.07c0,0-0.27,0.31-0.27,0.59c0,0.2,0,0.5,0,0.5
				c0,0.05-0.03,0.12-0.06,0.16l-2.73,3.24c-0.03,0.04-0.07,0.03-0.09-0.01l-0.15-0.35c-0.02-0.05-0.04-0.09-0.05-0.1
				c-0.01-0.01-0.06,0.04-0.09,0.08c0,0-0.26,0.32-0.26,0.6c0,0.18,0.01,0.47,0.01,0.47c0,0.05-0.02,0.12-0.05,0.16l-2.28,2.93
				c-0.03,0.04-0.05,0.03-0.04-0.02l0.31-2.98c0-0.05,0.04-0.12,0.07-0.15c0,0,0.22-0.23,0.4-0.4c0.19-0.2,0.22-0.61,0.22-0.61
				c0-0.05,0-0.1,0-0.11c0-0.01-0.07,0.01-0.12,0.03l-0.41,0.18c-0.05,0.02-0.08,0-0.08-0.05l0.25-4.32c0-0.05,0.03-0.12,0.06-0.16
				c0,0,0.21-0.23,0.39-0.43c0.19-0.21,0.2-0.62,0.2-0.62c0-0.05,0-0.1-0.01-0.11s-0.07,0.01-0.12,0.03l-0.42,0.21
				c-0.04,0.02-0.08,0-0.08-0.05l0.01-4.4c0-0.05,0.02-0.12,0.06-0.16c0,0,0.2-0.25,0.35-0.45c0.17-0.22,0.16-0.63,0.16-0.63
				c0-0.05-0.01-0.1-0.01-0.11c-0.01-0.01-0.07,0.01-0.11,0.04l-0.38,0.22c-0.04,0.02-0.08,0-0.08-0.05l-0.24-4.51
				c0-0.05,0.02-0.12,0.05-0.16c0,0,0.17-0.19,0.28-0.32c0.18-0.21,0.19-0.62,0.19-0.62c0-0.05,0-0.1-0.01-0.11
				s-0.07,0.01-0.11,0.03l-0.38,0.2c-0.04,0.02-0.08,0-0.09-0.05c0,0-0.2-2.31-0.34-3.5c-0.23-1.52-1.86-2.06-2.69-0.88
				c-0.22,0.33-0.6,0.94-0.6,0.94c-0.03,0.04-0.07,0.04-0.1,0l-0.23-0.35c-0.03-0.04-0.06-0.08-0.07-0.09
				c-0.01-0.01-0.05,0.05-0.08,0.09c0,0-0.2,0.36-0.14,0.64c0.03,0.16,0.09,0.41,0.09,0.41c0.01,0.05,0,0.12-0.03,0.16l-2.34,3.87
				c-0.03,0.04-0.07,0.04-0.1,0l-0.26-0.37c-0.03-0.04-0.06-0.08-0.07-0.08c-0.01-0.01-0.05,0.05-0.07,0.09c0,0-0.19,0.37-0.12,0.64
				c0.05,0.19,0.12,0.49,0.12,0.49c0.01,0.05,0,0.12-0.02,0.17l-7.27,15.52c-0.02,0.05-0.04,0.04-0.05-0.01c0,0-0.41-2.4-0.66-3.65
				c-0.18-0.98-1.01-1.61-1.84-1.4c-0.83,0.21-1.34,1.18-1.13,2.16c0.99,4.94,1.62,9.97,1.9,15.02c0.62,12.01-1.18,30.22-1.18,30.22
				c0,0.05-0.05,0.1-0.1,0.11l-4.17,0.76c-0.05,0.01-0.1-0.02-0.11-0.07c0,0-3.81-18-4.45-30.5c-0.46-11.09,3.31-32.67,3.31-32.67
				c0.01-0.05,0.03-0.05,0.05,0c0,0,0.41,1.15,0.66,1.86c0.78,2.2,3.56,0.92,2.82-1.3c-0.01-0.04-0.01-0.04-0.01-0.04
				c-0.02-0.04-0.01-0.12,0-0.16c0,0,0.1-0.29,0.17-0.48c0.09-0.26-0.05-0.65-0.05-0.65c-0.02-0.05-0.04-0.09-0.05-0.1
				c-0.01-0.01-0.06,0.04-0.09,0.07l-0.26,0.29c-0.03,0.04-0.07,0.03-0.09-0.02l-1.55-4.1c-0.02-0.05-0.02-0.12-0.01-0.17
				c0,0,0.08-0.29,0.14-0.47c0.08-0.27-0.09-0.65-0.09-0.65c-0.02-0.05-0.04-0.09-0.05-0.1c-0.01-0.01-0.06,0.04-0.09,0.08
				l-0.23,0.3c-0.03,0.04-0.07,0.03-0.09-0.01c0,0-0.05-0.12-0.06-0.13c-0.62-1.36-2.29-1.28-2.77,0.14
				c-0.33,1.11-0.93,3.25-0.93,3.25c-0.01,0.05-0.06,0.06-0.09,0.03l-0.34-0.27c-0.04-0.03-0.08-0.06-0.09-0.06
				c-0.01,0-0.03,0.06-0.04,0.11c0,0-0.08,0.41,0.06,0.65c0.09,0.16,0.23,0.4,0.23,0.4c0.02,0.04,0.04,0.12,0.02,0.17l-1.04,4.38
				c-0.01,0.05-0.05,0.06-0.09,0.03l-0.37-0.28c-0.04-0.03-0.08-0.06-0.09-0.06c-0.01,0-0.03,0.06-0.04,0.11
				c0,0-0.07,0.41,0.08,0.65c0.1,0.17,0.26,0.43,0.26,0.43c0.03,0.04,0.04,0.12,0.03,0.17l-0.82,4.47
				c-0.01,0.05-0.05,0.07-0.09,0.04l-0.38-0.27c-0.04-0.03-0.08-0.05-0.09-0.06c-0.01,0-0.03,0.06-0.04,0.11
				c0,0-0.06,0.41,0.09,0.64c0.13,0.2,0.3,0.47,0.3,0.47c0.03,0.04,0.04,0.12,0.04,0.16l-0.6,4.36c-0.01,0.05-0.05,0.07-0.09,0.04
				l-0.41-0.24c-0.04-0.03-0.09-0.05-0.1-0.05c-0.01,0-0.02,0.07-0.03,0.12c0,0-0.02,0.41,0.15,0.63c0.12,0.16,0.31,0.4,0.31,0.4
				c0.03,0.04,0.05,0.11,0.05,0.16l-0.47,5.71c0,0.05-0.03,0.05-0.05,0.01l-2.62-4.9c-0.02-0.04-0.04-0.12-0.03-0.17
				c0,0,0.06-0.28,0.1-0.47c0.06-0.27-0.14-0.64-0.14-0.64c-0.02-0.04-0.05-0.08-0.06-0.09c-0.01-0.01-0.06,0.04-0.08,0.09
				l-0.23,0.34c-0.03,0.04-0.07,0.04-0.1,0l-2.35-3.88c-0.03-0.04-0.04-0.12-0.03-0.16c0,0,0.05-0.25,0.09-0.42
				c0.06-0.27-0.14-0.64-0.14-0.64c-0.02-0.04-0.05-0.08-0.06-0.09c-0.01-0.01-0.06,0.04-0.08,0.09l-0.23,0.35
				c-0.03,0.04-0.07,0.04-0.1,0l-2.51-3.72c-0.03-0.04-0.05-0.11-0.04-0.16c0,0,0.02-0.26,0.04-0.42c0.03-0.28-0.21-0.62-0.21-0.62
				c-0.03-0.04-0.06-0.08-0.07-0.08c-0.01-0.01-0.05,0.05-0.07,0.09l-0.16,0.32c-0.02,0.04-0.06,0.05-0.09,0.01l-2.71-3.63
				c-0.03-0.04-0.05-0.11-0.05-0.16c0,0,0.01-0.2,0.02-0.33c0.02-0.28-0.23-0.61-0.23-0.61c-0.03-0.04-0.06-0.08-0.07-0.08
				c-0.01-0.01-0.05,0.05-0.07,0.1l-0.14,0.28c-0.02,0.04-0.06,0.05-0.09,0.01c0,0-0.64-0.81-0.99-1.24
				c-0.94-1.09-2.52-0.39-2.58,1.15c0,0.1,0,0.22,0,0.22c0,0.05-0.04,0.07-0.08,0.05l-0.43-0.21c-0.04-0.02-0.09-0.04-0.1-0.04
				c-0.01,0-0.02,0.07-0.02,0.12c0,0,0.02,0.41,0.2,0.62c0.15,0.16,0.36,0.4,0.36,0.4c0.03,0.04,0.06,0.11,0.06,0.16l0.08,4.41
				c0,0.05-0.03,0.07-0.08,0.05l-0.4-0.18c-0.05-0.02-0.09-0.04-0.1-0.04c-0.01,0-0.02,0.07-0.01,0.12c0,0,0.03,0.41,0.22,0.61
				c0.14,0.15,0.37,0.38,0.37,0.38c0.03,0.04,0.06,0.11,0.07,0.15l0.33,4.41c0,0.05-0.03,0.08-0.08,0.06l-0.43-0.14
				c-0.05-0.02-0.1-0.03-0.11-0.02c-0.01,0-0.01,0.07,0,0.12c0,0,0.07,0.41,0.29,0.58c0.14,0.11,0.34,0.28,0.34,0.28
				c0.04,0.03,0.07,0.1,0.08,0.15l0.58,4.49c0.01,0.05-0.03,0.08-0.07,0.06l-0.41-0.13c-0.05-0.02-0.1-0.03-0.11-0.02
				c-0.01,0-0.01,0.07,0,0.12c0,0,0.07,0.41,0.29,0.58c0.15,0.12,0.38,0.31,0.38,0.31c0.04,0.03,0.08,0.1,0.08,0.15l1.19,6.17
				c0.01,0.05-0.01,0.06-0.04,0.02l-2.34-2.44c-0.03-0.04-0.07-0.1-0.07-0.15c0,0-0.03-0.31-0.05-0.51
				c-0.03-0.28-0.33-0.56-0.33-0.56c-0.04-0.03-0.07-0.07-0.09-0.07c-0.01,0-0.04,0.06-0.05,0.11l-0.11,0.38
				c-0.01,0.05-0.05,0.06-0.09,0.02l-3.32-3.22c-0.04-0.03-0.07-0.1-0.07-0.15c0,0-0.03-0.28-0.05-0.47
				c-0.03-0.28-0.33-0.56-0.33-0.56c-0.04-0.03-0.07-0.07-0.09-0.07c-0.01,0-0.04,0.06-0.05,0.11l-0.11,0.4
				c-0.01,0.05-0.05,0.06-0.09,0.03l-3.4-2.98c-0.04-0.03-0.07-0.1-0.08-0.15c0,0-0.03-0.28-0.05-0.46
				c-0.03-0.28-0.33-0.56-0.33-0.56c-0.04-0.03-0.07-0.07-0.09-0.07c-0.01,0-0.04,0.06-0.05,0.11l-0.12,0.43
				c-0.01,0.05-0.06,0.06-0.09,0.03c0,0-4.52-3.61-6.89-5.3c-1.19-0.81-2.59,0.48-2.21,2.03c2.2,7.92,9.18,22.35,9.18,22.35
				c0.02,0.04,0,0.06-0.04,0.04c0,0-10.66-5.39-16.24-7.36c-1.33-0.42-1.66,2.56-1.66,2.56c-0.01,0.05,0.01,0.12,0.04,0.16
				l19.05,23.41c0.03,0.04,0.02,0.08-0.02,0.1l-0.4,0.16c-0.05,0.02-0.09,0.04-0.1,0.05s0.04,0.06,0.08,0.09
				c0,0,0.32,0.27,0.59,0.27c0.22,0,0.54,0,0.54,0c0.05,0,0.12,0.03,0.16,0.06c0,0,1.18,1.02,1.81,1.53c0.56,0.45,1.6,1.28,1.6,1.28
				c0.04,0.03,0.03,0.07-0.01,0.09l-0.34,0.13c-0.05,0.02-0.09,0.04-0.1,0.05s0.04,0.06,0.07,0.09c0,0,0.32,0.27,0.59,0.27
				c0.19,0,0.49,0,0.49,0c0.05,0,0.12,0.03,0.16,0.06l3.44,2.63c0.04,0.03,0.03,0.07-0.01,0.09l-0.37,0.17
				c-0.05,0.02-0.09,0.04-0.1,0.05c-0.01,0.01,0.04,0.06,0.08,0.09c0,0,0.33,0.25,0.61,0.24c0.21-0.01,0.53-0.02,0.53-0.02
				c0.05,0,0.12,0.02,0.16,0.05l3.84,2.76c0.04,0.03,0.03,0.05-0.02,0.04c0,0-20.02-2.94-30.12-2.52c-2.03,0.1-1.84,3.7,0.19,3.59
				c21.18-1.09,41.13,4.99,55.7,9.43c8.3,2.53,14.86,4.53,18.93,4.32c2.03-0.1,1.84-3.7-0.19-3.59c-3.61,0.19-9.97-1.75-18.02-4.21
				c-2.68-0.82-8.48-2.54-8.48-2.54c-0.05-0.01-0.05-0.03,0-0.04l11.68-2.26c0.05-0.01,0.1-0.02,0.12-0.03
				c0.02,0,0.07-0.02,0.12-0.03l40.18-10.15c0.05-0.01,0.09-0.03,0.09-0.03c0,0,0.03-0.03,0.07-0.06
				C181.4,72.38,182.63,71.22,182.41,70.26z M102.26,69.54c-0.04-0.03-0.07-0.06-0.07-0.06s-0.03-0.03-0.07-0.06L83.95,49.18
				c-0.03-0.04-0.02-0.05,0.03-0.03l16.31,8.38c0.04,0.02,0.1,0.08,0.13,0.12c0,0,2.04,3.11,3.2,4.72
				c5,7.03,16.23,19.58,16.23,19.58c0.03,0.04,0.03,0.04-0.02,0.02L102.26,69.54z M105.92,60.07C100.06,51.9,91.94,32.9,91.94,32.9
				c-0.02-0.05-0.04-0.08-0.04-0.08s0.03,0.02,0.07,0.06l17.85,17.14c0.03,0.04,0.07,0.1,0.09,0.15c0,0,1.15,3.79,1.86,5.76
				c2.88,8.26,10.43,23.65,10.43,23.65c0.02,0.04,0.01,0.05-0.02,0.01C122.17,79.6,110.91,67.1,105.92,60.07z M114.57,54.59
				c-3.44-9.81-5.86-30.67-5.86-30.67c-0.01-0.05,0.01-0.06,0.04-0.01l12.77,21.79c0.02,0.04,0.04,0.12,0.04,0.17
				c0,0,0.04,3.26,0.13,4.98c0.55,10.7,3.59,27.73,3.59,27.73c0.01,0.05,0,0.05-0.02,0.01C125.26,78.58,117.48,62.99,114.57,54.59z
				 M137.78,50.02c-0.09-1.66-0.39-4.93-0.39-4.93c0-0.05,0.01-0.13,0.02-0.17l10.46-23.02c0.02-0.04,0.04-0.04,0.04,0.01
				c0,0,0.06,16.66-1.35,24.84c-0.01,0.04-0.01,0.07-0.02,0.1c-0.39,2.17-0.81,4.19-1.3,6.17c-2.03,8.64-8.14,24.92-8.14,24.92
				c-0.02,0.05-0.03,0.04-0.03-0.01C137.09,77.92,138.34,60.75,137.78,50.02z M140.27,78.67c-0.03,0.04-0.04,0.03-0.02-0.01
				c0,0,5.91-16.09,7.93-24.59c0.48-1.94,1.25-5.92,1.25-5.92c0.01-0.05,0.02-0.09,0.02-0.09c0,0,0.03-0.04,0.06-0.08l15.99-18.9
				c0.03-0.04,0.05-0.03,0.04,0.02c0,0-4.7,15.92-8.32,23.22c-0.85,1.72-1.79,3.49-2.8,5.25C150.18,65.07,140.27,78.67,140.27,78.67
				z"/>
		</g>
	</g>
	<g>
		<path class="st4" d="M246.33,33.81c-9.28,0-6.01-22.06-29.04-22.06c-15.18,0-30.46,13.98-24.68,41.27
			c7.21,33.63,41.38,34.29,57.76,19.76V49.86h-29.92v-2.4h39.86v39.96h-0.77c-1.53-8.41-4.48-11.03-7.86-11.57
			c-6.77,7.75-16.81,11.79-29.48,11.79c-22.49,0-40.18-14.19-40.18-39.31c0-25.22,17.69-39.31,40.18-39.31
			c9.83,0,29.59,5.57,29.59,18.67C251.79,31.74,249.16,33.81,246.33,33.81z"/>
		<path class="st4" d="M288.58,86.55H267.5l34.07-69.34l-2.29-6v-1.09h10.38l28.72,71.08c1.09,2.51,3.71,4.26,6.55,4.26v1.09h-24.57
			v-1.09h0.44c3.93,0,5.79-2.29,4.8-5.79l-6.88-17.91h-32.32v-2.4h31.45l-15.18-39.31L281.59,63.4c-3.93,8.08-3.28,22.06,6.99,22.06
			V86.55z"/>
		<path class="st4" d="M391.54,10.12h17.58L379.2,86.55h-9.61l-29.81-70.87c-1.2-2.73-3.93-4.48-6.88-4.48h-0.22v-1.09h22.71v1.09
			h-0.33c-3.71,0-5.24,2.18-3.82,5.57l27.19,65.73l16.81-42.58c3.71-9.39,9.94-24.13-3.71-28.72V10.12z"/>
		<path class="st4" d="M466.22,69.63l-3.38,16.92h-51.76V86h0.33c3.93,0,6.66-4.8,6.66-11.79V21.47
			c-0.33-6.44-2.95-10.81-6.66-10.81h-0.33v-0.55h49.03l3.49,16.92h-1.09c-5.46-8.52-14.96-14.52-24.02-14.52h-10.26v71.63h12.88
			c9.17,0,18.56-6,24.02-14.52H466.22z M455.31,36.21l0.98-0.11v23.58l-0.98-0.11c-3.82-8.08-6.44-10.37-11.68-10.37h-13.21v-2.62
			h13.21C448.86,46.59,451.48,44.29,455.31,36.21z"/>
		<path class="st5" d="M6.44,10.66h0.33c4.04,0,6.66,4.8,6.66,11.79V75.3C13.1,81.75,10.59,86,6.77,86H6.44v0.55h24.13V86h-0.33
			c-4.04,0-6.66-4.8-6.66-11.79V22.45c0-6.99,2.62-11.79,6.66-11.79h0.33v-0.55H6.44V10.66z"/>
		<polygon class="st6" points="157.12,61.76 157.11,61.76 157.76,63.43 		"/>
		<polygon class="st6" points="157.11,61.76 124.8,61.76 124.8,59.36 156.18,59.36 155.47,57.55 124.19,57.51 124.19,63.4 
			157.76,63.43 157.76,63.43 		"/>
		<path class="st6" d="M176.77,81.2l-28.72-71.08h-10.37H97.5h-0.47H78.94v1.09c9.28,0,16.16,12.01,16.16,22.49v43.9L47.6,10.12
			H31.99v0.55h0.22c3.82,0,6.44,4.37,6.77,10.81v65.08h18.56v-1.09c-9.39,0-16.16-12.01-16.16-22.49V18.63l47.5,67.92h7.86h0.77h8.4
			h1.74h19.33v-1.09c-10.26,0-10.92-13.98-6.99-22.06l21.07-43.35l15.18,39.31h-0.07l0.93,2.4h0.01l0.64,1.66l0,0.01l0,0L164,79.67
			c0.98,3.49-0.87,5.79-4.8,5.79h-0.44v1.09h24.57v-1.09C180.49,85.46,177.87,83.71,176.77,81.2z"/>
		<polygon class="st7" points="157.76,63.43 157.76,63.43 157.76,63.43 		"/>
		<polygon class="st5" points="124.8,61.76 157.11,61.76 156.18,59.36 124.8,59.36 		"/>
	</g>
</g>
</svg>
